<svg width="27" height="27" viewBox="0 0 27 27" fill="none" xmlns="http://www.w3.org/2000/svg">
<path d="M13.3333 0C5.96833 0 0 5.97 0 13.3333C0 20.6967 5.96833 26.6667 13.3333 26.6667C20.6983 26.6667 26.6667 20.6967 26.6667 13.3333C26.6667 5.97 20.6983 0 13.3333 0ZM19.5117 17.155C20.1633 17.8067 20.1633 18.86 19.5117 19.5117C19.1867 19.8367 18.76 20 18.3333 20C17.9067 20 17.48 19.8367 17.155 19.5117L13.3333 15.69L9.51167 19.5117C9.18667 19.8367 8.76 20 8.33333 20C7.90667 20 7.48 19.8367 7.155 19.5117C6.50333 18.86 6.50333 17.8067 7.155 17.155L10.9767 13.3333L7.155 9.51167C6.50333 8.86 6.50333 7.80667 7.155 7.155C7.80667 6.50333 8.86 6.50333 9.51167 7.155L13.3333 10.9767L17.155 7.155C17.8067 6.50333 18.86 6.50333 19.5117 7.155C20.1633 7.80667 20.1633 8.86 19.5117 9.51167L15.69 13.3333L19.5117 17.155Z" fill="#CA3636"/>
</svg>
